<mxfile host="65bd71144e">
    <diagram id="8g8rX_GsKowqInOYwihu" name="Page-1">
        <mxGraphModel dx="2433" dy="511" grid="1" gridSize="10" guides="1" tooltips="1" connect="1" arrows="1" fold="1" page="1" pageScale="1" pageWidth="1600" pageHeight="900" math="0" shadow="0">
            <root>
                <mxCell id="0"/>
                <mxCell id="1" style="" parent="0"/>
                <mxCell id="172" value="&lt;div class=&quot;sessionsLayoutHeader_title&quot; style=&quot;box-sizing: inherit ; margin: 30px 0px ; letter-spacing: 1px ; font-size: 36px ; font-weight: 400 ; color: rgb(74 , 74 , 74) ; font-style: normal ; text-indent: 0px ; text-transform: none ; word-spacing: 0px ; background-color: rgb(255 , 255 , 255)&quot;&gt;&lt;br&gt;&lt;/div&gt;" style="html=1;shadow=0;dashed=0;fontSize=16;align=left;spacing=15;container=0;fillColor=#fff;fontColor=#333333;strokeColor=#666666;" parent="1" vertex="1">
                    <mxGeometry width="1600" height="900" as="geometry"/>
                </mxCell>
                <mxCell id="175" value="ログイン" style="html=1;shadow=0;dashed=0;shape=mxgraph.bootstrap.rrect;rSize=5;fillColor=#3ea8ff;strokeColor=none;align=center;spacing=15;fontSize=14;fontColor=#ffffff;" parent="1" vertex="1">
                    <mxGeometry x="740" y="440" width="120" height="40" as="geometry"/>
                </mxCell>
                <mxCell id="179" value="" style="group" parent="1" vertex="1" connectable="0">
                    <mxGeometry x="620" y="230" width="360" height="70" as="geometry"/>
                </mxCell>
                <mxCell id="180" value="メールアドレス" style="fillColor=none;strokeColor=none;align=left;fontSize=14;fontColor=#000000;" parent="179" vertex="1">
                    <mxGeometry width="360" height="30" as="geometry"/>
                </mxCell>
                <mxCell id="181" value="メールアドレス" style="html=1;shadow=0;dashed=0;shape=mxgraph.bootstrap.rrect;rSize=5;fillColor=#ffffff;strokeColor=#CED4DA;align=left;spacing=15;fontSize=14;fontColor=#6C767D;" parent="179" vertex="1">
                    <mxGeometry y="30" width="360" height="40" as="geometry"/>
                </mxCell>
                <mxCell id="182" value="" style="group" parent="1" vertex="1" connectable="0">
                    <mxGeometry x="620" y="320" width="360" height="70" as="geometry"/>
                </mxCell>
                <mxCell id="183" value="パスワード" style="fillColor=none;strokeColor=none;align=left;fontSize=14;fontColor=#000000;" parent="182" vertex="1">
                    <mxGeometry width="360" height="30" as="geometry"/>
                </mxCell>
                <mxCell id="184" value="パスワード (10文字以上)" style="html=1;shadow=0;dashed=0;shape=mxgraph.bootstrap.rrect;rSize=5;fillColor=#ffffff;strokeColor=#CED4DA;align=left;spacing=15;fontSize=14;fontColor=#6C767D;" parent="182" vertex="1">
                    <mxGeometry y="30" width="360" height="40" as="geometry"/>
                </mxCell>
                <mxCell id="186" value="" style="group" parent="1" vertex="1" connectable="0">
                    <mxGeometry x="676" y="550" width="249" height="30" as="geometry"/>
                </mxCell>
                <mxCell id="187" value="アカウントをお持ちでない方は　　　　から" style="fillColor=none;strokeColor=none;align=left;fontSize=12;fontColor=#505050;" parent="186" vertex="1">
                    <mxGeometry x="1.8444444444444446" width="147.55555555555557" height="30" as="geometry"/>
                </mxCell>
                <mxCell id="188" value="新規登録" style="fillColor=none;strokeColor=none;align=left;fontSize=12;fontColor=#0085FC;" parent="186" vertex="1">
                    <mxGeometry x="168.9977777777778" width="55.333333333333336" height="30" as="geometry"/>
                </mxCell>
                <mxCell id="190" value="" style="endArrow=none;html=1;strokeColor=#5c93bb2b;strokeWidth=3;entryX=1;entryY=0.067;entryDx=0;entryDy=0;entryPerimeter=0;exitX=-0.001;exitY=0.069;exitDx=0;exitDy=0;exitPerimeter=0;" parent="1" source="172" target="172" edge="1">
                    <mxGeometry width="50" height="50" relative="1" as="geometry">
                        <mxPoint y="70" as="sourcePoint"/>
                        <mxPoint x="1760" as="targetPoint"/>
                    </mxGeometry>
                </mxCell>
                <mxCell id="191" value="ロゴ" style="rounded=0;whiteSpace=wrap;html=1;strokeWidth=3;fillColor=#dae8fc;strokeColor=#6c8ebf;fontStyle=1;fontSize=26;labelBackgroundColor=none;fontColor=#301AF0;" parent="1" vertex="1">
                    <mxGeometry x="40" y="10" width="120" height="50" as="geometry"/>
                </mxCell>
                <mxCell id="196" value="サービス名にログイン" style="text;strokeColor=none;fillColor=none;align=center;verticalAlign=middle;rounded=0;labelBackgroundColor=none;fontSize=24;fontColor=#000000d1;horizontal=1;whiteSpace=wrap;html=1;" parent="1" vertex="1">
                    <mxGeometry x="600" y="120" width="400" height="70" as="geometry"/>
                </mxCell>
                <mxCell id="155" value="名称未設定レイヤ" style="" parent="0"/>
            </root>
        </mxGraphModel>
    </diagram>
</mxfile>